<svg xmlns="http://www.w3.org/2000/svg" viewBox="7205 22 210.807 36">
  <defs>
    <style>
      .cls-1 {
        fill: #dc4100;
      }
    </style>
  </defs>
  <g id="Group_454" data-name="Group 454" transform="translate(7204.963 22.033)">
    <path id="Path_2543" data-name="Path 2543" class="cls-1" d="M17.039-.013A17.927,17.927,0,0,0,4.091,6.581,18,18,0,0,0,8.107,33.016a18.206,18.206,0,0,0,16.185,1.858c2.038-.719,1.139-3.956-.9-3.237a14.689,14.689,0,0,1-19.9-15.526,14.584,14.584,0,0,1,21.7-10.85,14.736,14.736,0,0,1,6.294,18.463,6.736,6.736,0,0,1-2.218,2.937c-1.139.779-2.638-.48-3.357-1.259-.06-.06-.12-.18-.24-.24h0a3.294,3.294,0,0,0-.42-.54c-.6-.719-1.139-1.5-1.738-2.218-.42-.54-.779-1.079-1.2-1.559a6.053,6.053,0,0,0,4.136-5.815,6.422,6.422,0,0,0-2.817-5.215,6.785,6.785,0,0,0-4.016-.959H12.843a1.587,1.587,0,0,0-1.559,1.559V26.243a1.56,1.56,0,0,0,3.117,0V21.327h4.376a.059.059,0,0,0,.06.06c1.139,1.5,2.338,3.057,3.477,4.556,1.079,1.379,2.158,3.237,4.136,4.016,5.815,2.218,8.872-5.335,9.411-9.771A18.214,18.214,0,0,0,30.886,5.622,17.607,17.607,0,0,0,17.039-.013Zm4.5,17.863a6.869,6.869,0,0,1-2.458.24H14.521V11.856h4.136c.719,0,1.439-.06,2.158,0a3.045,3.045,0,0,1,2.638,3.057A3.334,3.334,0,0,1,21.535,17.85Z" transform="translate(0 0)"/>
    <g id="Group_453" data-name="Group 453" transform="translate(44.254 6.581)">
      <path id="Path_2544" data-name="Path 2544" class="cls-1" d="M341.488,21.8a1.153,1.153,0,0,0-1.139,1.2v8.033a4.663,4.663,0,0,1-4.736,4.975c-2.757,0-4.376-1.858-4.376-4.8V23a1.2,1.2,0,0,0-1.2-1.2A1.152,1.152,0,0,0,328.9,23v8.752c0,3.777,2.218,6.354,5.994,6.354a6,6,0,0,0,5.395-3.117v1.738a1.192,1.192,0,0,0,1.139,1.2,1.153,1.153,0,0,0,1.139-1.2V23A1.106,1.106,0,0,0,341.488,21.8Z" transform="translate(-175.982 -15.326)"/>
      <path id="Path_2545" data-name="Path 2545" class="cls-1" d="M210.686,11a1.781,1.781,0,0,0-1.8,1.858v7.014a6.421,6.421,0,0,0-5.455-2.817C199.6,16.994,196,19.992,196,25.327v.06c0,5.335,3.657,8.392,7.433,8.392a6.276,6.276,0,0,0,5.455-3.057v1.019a1.868,1.868,0,0,0,1.858,1.858,1.781,1.781,0,0,0,1.8-1.858V12.8A1.781,1.781,0,0,0,210.686,11Zm-1.738,14.387a4.844,4.844,0,0,1-4.676,5.155c-2.518,0-4.616-2.038-4.616-5.155v-.06c0-3.237,2.1-5.155,4.616-5.155a4.844,4.844,0,0,1,4.676,5.155Z" transform="translate(-122.748 -11)"/>
      <path id="Path_2546" data-name="Path 2546" class="cls-1" d="M249.9,12.6h-.3a1.285,1.285,0,0,0-1.139.659L240.85,24.769l-7.613-11.509A1.335,1.335,0,0,0,232.1,12.6h-.3a1.2,1.2,0,0,0-1.2,1.2V33.1a1.169,1.169,0,1,0,2.338,0V17.1l6.894,10.011a1.178,1.178,0,0,0,1.019.6,1.323,1.323,0,0,0,1.019-.6L248.7,17.036V32.981a1.2,1.2,0,1,0,2.4,0V13.8A1.2,1.2,0,0,0,249.9,12.6Z" transform="translate(-136.607 -11.641)"/>
      <path id="Path_2547" data-name="Path 2547" class="cls-1" d="M91.184,19.534v-.06a6.644,6.644,0,0,0-1.738-4.616A8.682,8.682,0,0,0,83.331,12.7H75.658A1.844,1.844,0,0,0,73.8,14.618v17.8a1.858,1.858,0,0,0,3.717,0V26.667h4.736l5.155,6.654a2.041,2.041,0,0,0,1.8.959A1.79,1.79,0,0,0,91,32.542a2.212,2.212,0,0,0-.6-1.439l-4.076-5.155A6.369,6.369,0,0,0,91.184,19.534Zm-3.777.24c0,2.158-1.678,3.6-4.376,3.6H77.517V16.177h5.455c2.757,0,4.436,1.259,4.436,3.537Z" transform="translate(-73.8 -11.681)"/>
      <path id="Path_2548" data-name="Path 2548" class="cls-1" d="M285.366,29.533c0-4.2-2.638-8.033-7.313-8.033-4.376,0-7.553,3.657-7.553,8.212v.06a7.82,7.82,0,0,0,7.853,8.212,7.961,7.961,0,0,0,5.934-2.4,1.021,1.021,0,0,0-.659-1.8.859.859,0,0,0-.659.3,6.36,6.36,0,0,1-4.556,1.858,5.444,5.444,0,0,1-5.515-5.335h11.389A1.073,1.073,0,0,0,285.366,29.533ZM272.9,28.873c.3-3.117,2.4-5.4,5.1-5.4,3.117,0,4.8,2.518,5.035,5.4Z" transform="translate(-152.589 -15.206)"/>
      <path id="Path_2549" data-name="Path 2549" class="cls-1" d="M307.833,21.5a5.935,5.935,0,0,0-5.395,3.117V22.879a1.2,1.2,0,0,0-1.2-1.2,1.152,1.152,0,0,0-1.139,1.2V36.606a1.2,1.2,0,0,0,1.2,1.2,1.153,1.153,0,0,0,1.139-1.2V28.633a4.63,4.63,0,0,1,4.736-4.975c2.758,0,4.376,1.858,4.376,4.8v8.212a1.2,1.2,0,0,0,1.2,1.2,1.153,1.153,0,0,0,1.139-1.2V27.854C313.887,24.078,311.669,21.5,307.833,21.5Z" transform="translate(-164.446 -15.206)"/>
      <path id="Path_2550" data-name="Path 2550" class="cls-1" d="M150.828,21.2a1.868,1.868,0,0,0-1.858,1.858v7.433c0,2.518-1.5,3.956-3.6,3.956-2.218,0-3.417-1.379-3.417-3.9V23.058A1.868,1.868,0,0,0,140.1,21.2a1.817,1.817,0,0,0-1.8,1.858V31.63c0,3.777,2.1,6.234,5.695,6.234a5.875,5.875,0,0,0,5.035-2.817v.839a1.858,1.858,0,0,0,3.717,0V23.058A1.962,1.962,0,0,0,150.828,21.2Z" transform="translate(-99.636 -15.086)"/>
      <path id="Path_2551" data-name="Path 2551" class="cls-1" d="M176.592,21a5.875,5.875,0,0,0-5.035,2.817v-.779A1.868,1.868,0,0,0,169.7,21.18a1.817,1.817,0,0,0-1.8,1.858V35.806a1.856,1.856,0,0,0,1.8,1.858,1.83,1.83,0,0,0,1.858-1.858V28.373c0-2.518,1.5-4.016,3.6-4.016,2.218,0,3.417,1.439,3.417,3.956v7.493a1.868,1.868,0,0,0,1.858,1.858,1.781,1.781,0,0,0,1.8-1.858V27.174C182.347,23.4,180.249,21,176.592,21Z" transform="translate(-111.492 -15.006)"/>
      <path id="Path_2552" data-name="Path 2552" class="cls-1" d="M114.272,21a8.431,8.431,0,0,0-8.572,8.452v.06a8.282,8.282,0,0,0,8.512,8.332,8.434,8.434,0,0,0,8.632-8.392v-.06A8.309,8.309,0,0,0,114.272,21Zm4.915,8.452a4.818,4.818,0,0,1-4.855,5.1,4.955,4.955,0,0,1-4.915-5.155v-.06a4.835,4.835,0,0,1,4.855-5.155,4.971,4.971,0,0,1,4.915,5.215Z" transform="translate(-86.578 -15.006)"/>
    </g>
  </g>
</svg>
